<svg xmlns="http://www.w3.org/2000/svg" viewBox="0 0 50 50" width="50px" height="50px" fill='white'><path d="M14.6362 23.5699c-3.8016-1.9008-6.3677-5.7024-6.3677-10.2643 0-6.2726 5.1322-11.4048 11.4048-11.4048s11.4048 5.1322 11.4048 11.4048c0 6.1776-4.847 11.2147-11.0246 11.4048h-.095c-9.409 0-17.1072 7.6982-17.1072 17.1072 0 .5702-.3802.9504-.9504.9504s-.9504-.3802-.9504-.9504c0-8.6486 5.7974-15.9667 13.6858-18.2477zm5.0371-.7603c5.2272 0 9.504-4.2768 9.504-9.504s-4.2768-9.504-9.504-9.504-9.504 4.2768-9.504 9.504 4.2768 9.504 9.504 9.504zm26.041 6.2726.1901.4752-2.281 2.7562c-.3802.4752-.3802 1.2355 0 1.7107l2.281 2.6611-.1901.4752c-.4752 1.3306-1.1405 2.6611-2.0909 3.7066l-.3802.3802-3.5165-.5702c-.5702-.095-1.2355.2851-1.4256.8554l-1.2355 3.4214-.4752.095c-1.8058.3802-3.6115.3802-5.4173 0l-.5702-.095-1.1405-3.3264c-.1901-.5702-.8554-.9504-1.4256-.8554l-3.6115.5702-.3802-.3802c-.4752-.4752-.8554-1.0454-1.1405-1.6157-.3802-.6653-.7603-1.4256-.9504-2.1859l-.1901-.4752 2.376-2.6611c.3802-.4752.3802-1.2355 0-1.6157l-2.281-2.7562.1901-.4752c.4752-1.4256 1.2355-2.6611 2.1859-3.8016l.3802-.3802 3.4214.5702c.5702.095 1.2355-.2851 1.5206-.8554l1.2355-3.3264.4752-.095c1.7107-.3802 3.5165-.3802 5.3222 0l.5702.095 1.1405 3.2314c.1901.5702.8554 1.0454 1.5206.9504l3.5165-.4752.3802.3802c.4752.5702.8554 1.0454 1.1405 1.7107.2851.4752.5702 1.2355.8554 1.9008zm-2.6611-1.1405c-.1901-.3802-.3802-.6653-.6653-1.0454l-2.471.2851c-1.5206.1901-3.0413-.7603-3.5165-2.1859L35.64 22.8096c-1.1405-.1901-2.281-.1901-3.4214 0l-.8554 2.281c-.4752 1.4256-2.0909 2.376-3.6115 2.0909l-2.376-.3802c-.5702.6653-.9504 1.5206-1.3306 2.281l1.6157 1.9008c.9504 1.1405.9504 2.9462 0 4.0867l-1.6157 1.9008c.1901.4752.3802.8554.6653 1.3306.1901.3802.3802.6653.6653.9504l2.5661-.3802c1.5206-.1901 3.0413.7603 3.5165 2.1859l.7603 2.281c1.1405.1901 2.376.1901 3.5165 0l.8554-2.376c.4752-1.4256 2.0909-2.376 3.5165-2.0909l2.376.3802c.4752-.6653.9504-1.4256 1.2355-2.281l-1.5206-1.8058c-.9504-1.1405-1.0454-2.9462-.095-4.0867l1.6157-1.9008c-.1901-.3802-.3802-.7603-.6653-1.2355zm-9.1238 9.504c-2.376 0-4.2768-1.9008-4.2768-4.2768s1.9008-4.2768 4.2768-4.2768 4.2768 1.9008 4.2768 4.2768-1.9958 4.2768-4.2768 4.2768zm0-1.9008c1.3306 0 2.376-1.0454 2.376-2.376s-1.0454-2.376-2.376-2.376-2.376 1.0454-2.376 2.376 1.0454 2.376 2.376 2.376z" /></svg>