<?xml version="1.0" encoding="utf-8"?>
<svg xmlns="http://www.w3.org/2000/svg" xmlns:xlink="http://www.w3.org/1999/xlink" style="margin: auto; background: rgb(0, 0, 0); display: block; shape-rendering: auto;" width="17px" height="17px" viewBox="0 0 100 100" preserveAspectRatio="xMidYMid">
<g transform="rotate(0 50 50)">
  <rect x="48" y="11" rx="2" ry="8.64" width="4" height="18" fill="#e7cfd4">
    <animate attributeName="opacity" values="1;0" keyTimes="0;1" dur="0.625s" begin="-0.5769230769230769s" repeatCount="indefinite"></animate>
  </rect>
</g><g transform="rotate(27.692307692307693 50 50)">
  <rect x="48" y="11" rx="2" ry="8.64" width="4" height="18" fill="#e7cfd4">
    <animate attributeName="opacity" values="1;0" keyTimes="0;1" dur="0.625s" begin="-0.5288461538461539s" repeatCount="indefinite"></animate>
  </rect>
</g><g transform="rotate(55.38461538461539 50 50)">
  <rect x="48" y="11" rx="2" ry="8.64" width="4" height="18" fill="#e7cfd4">
    <animate attributeName="opacity" values="1;0" keyTimes="0;1" dur="0.625s" begin="-0.4807692307692307s" repeatCount="indefinite"></animate>
  </rect>
</g><g transform="rotate(83.07692307692308 50 50)">
  <rect x="48" y="11" rx="2" ry="8.64" width="4" height="18" fill="#e7cfd4">
    <animate attributeName="opacity" values="1;0" keyTimes="0;1" dur="0.625s" begin="-0.43269230769230765s" repeatCount="indefinite"></animate>
  </rect>
</g><g transform="rotate(110.76923076923077 50 50)">
  <rect x="48" y="11" rx="2" ry="8.64" width="4" height="18" fill="#e7cfd4">
    <animate attributeName="opacity" values="1;0" keyTimes="0;1" dur="0.625s" begin="-0.3846153846153846s" repeatCount="indefinite"></animate>
  </rect>
</g><g transform="rotate(138.46153846153845 50 50)">
  <rect x="48" y="11" rx="2" ry="8.64" width="4" height="18" fill="#e7cfd4">
    <animate attributeName="opacity" values="1;0" keyTimes="0;1" dur="0.625s" begin="-0.3365384615384615s" repeatCount="indefinite"></animate>
  </rect>
</g><g transform="rotate(166.15384615384616 50 50)">
  <rect x="48" y="11" rx="2" ry="8.64" width="4" height="18" fill="#e7cfd4">
    <animate attributeName="opacity" values="1;0" keyTimes="0;1" dur="0.625s" begin="-0.28846153846153844s" repeatCount="indefinite"></animate>
  </rect>
</g><g transform="rotate(193.84615384615384 50 50)">
  <rect x="48" y="11" rx="2" ry="8.64" width="4" height="18" fill="#e7cfd4">
    <animate attributeName="opacity" values="1;0" keyTimes="0;1" dur="0.625s" begin="-0.24038461538461536s" repeatCount="indefinite"></animate>
  </rect>
</g><g transform="rotate(221.53846153846155 50 50)">
  <rect x="48" y="11" rx="2" ry="8.64" width="4" height="18" fill="#e7cfd4">
    <animate attributeName="opacity" values="1;0" keyTimes="0;1" dur="0.625s" begin="-0.1923076923076923s" repeatCount="indefinite"></animate>
  </rect>
</g><g transform="rotate(249.23076923076923 50 50)">
  <rect x="48" y="11" rx="2" ry="8.64" width="4" height="18" fill="#e7cfd4">
    <animate attributeName="opacity" values="1;0" keyTimes="0;1" dur="0.625s" begin="-0.14423076923076922s" repeatCount="indefinite"></animate>
  </rect>
</g><g transform="rotate(276.9230769230769 50 50)">
  <rect x="48" y="11" rx="2" ry="8.64" width="4" height="18" fill="#e7cfd4">
    <animate attributeName="opacity" values="1;0" keyTimes="0;1" dur="0.625s" begin="-0.09615384615384615s" repeatCount="indefinite"></animate>
  </rect>
</g><g transform="rotate(304.61538461538464 50 50)">
  <rect x="48" y="11" rx="2" ry="8.64" width="4" height="18" fill="#e7cfd4">
    <animate attributeName="opacity" values="1;0" keyTimes="0;1" dur="0.625s" begin="-0.04807692307692307s" repeatCount="indefinite"></animate>
  </rect>
</g><g transform="rotate(332.3076923076923 50 50)">
  <rect x="48" y="11" rx="2" ry="8.64" width="4" height="18" fill="#e7cfd4">
    <animate attributeName="opacity" values="1;0" keyTimes="0;1" dur="0.625s" begin="0s" repeatCount="indefinite"></animate>
  </rect>
</g>
<!-- [ldio] generated by https://loading.io/ --></svg>